HIERARCHY
ROOT Hips
{
	OFFSET 0.000000 87.230942 0.000000
	CHANNELS 6 Xposition Yposition Zposition Xrotation Yrotation Zrotation
	JOINT Pelvis
	{
		OFFSET 0.000000 0.000000 0.000000
		CHANNELS 3 Xrotation Yrotation Zrotation
		JOINT LeftUpLeg
		{
			OFFSET 12.017000 -9.376404 -2.439400
			CHANNELS 3 Xrotation Yrotation Zrotation
			JOINT LeftLeg
			{
				OFFSET -0.007312 -32.846973 2.110600
				CHANNELS 3 Xrotation Yrotation Zrotation
				JOINT LeftFoot
				{
					OFFSET 0.007312 -32.065170 -0.570400
					CHANNELS 3 Xrotation Yrotation Zrotation
					JOINT LeftToeBase
					{
						OFFSET 0.728300 -11.045900 13.180700
						CHANNELS 3 Xrotation Yrotation Zrotation
						End Site
						{
							OFFSET 0.000000 17.212589 0.000000
						}
					}
				}
				JOINT LeftPantLeg
				{
					OFFSET 0.002788 -16.709013 -3.143600
					CHANNELS 3 Xrotation Yrotation Zrotation
					End Site
					{
						OFFSET -0.605125 24.528742 0.000000
					}
				}
			}
			JOINT Left_Butt
			{
				OFFSET -6.630234 1.326584 -3.183700
				CHANNELS 3 Xrotation Yrotation Zrotation
				End Site
				{
					OFFSET -0.498041 20.188049 0.000000
				}
			}
		}
		JOINT RightUpLeg
		{
			OFFSET -11.717000 -9.376404 -2.439400
			CHANNELS 3 Xrotation Yrotation Zrotation
			JOINT RightLeg
			{
				OFFSET -0.003241 -32.846912 2.110600
				CHANNELS 3 Xrotation Yrotation Zrotation
				JOINT RightFoot
				{
					OFFSET 0.003241 -32.065136 -0.570500
					CHANNELS 3 Xrotation Yrotation Zrotation
					JOINT RightToeBase
					{
						OFFSET -0.728300 -11.045901 13.180700
						CHANNELS 3 Xrotation Yrotation Zrotation
						End Site
						{
							OFFSET 0.000000 17.212593 0.000000
						}
					}
				}
				JOINT RightPantLeg
				{
					OFFSET 0.008142 -16.708982 -3.143700
					CHANNELS 3 Xrotation Yrotation Zrotation
					End Site
					{
						OFFSET 0.605088 24.528715 0.000000
					}
				}
			}
			JOINT Right_Butt
			{
				OFFSET 6.630732 1.326584 -3.183700
				CHANNELS 3 Xrotation Yrotation Zrotation
				End Site
				{
					OFFSET 0.498015 20.188240 0.000000
				}
			}
		}
	}
	JOINT Spine
	{
		OFFSET -0.062400 7.848404 3.918300
		CHANNELS 3 Xrotation Yrotation Zrotation
		JOINT Spine1
		{
			OFFSET -0.072800 11.422302 0.713400
			CHANNELS 3 Xrotation Yrotation Zrotation
			JOINT Spine2
			{
				OFFSET -0.083200 13.054001 -1.931600
				CHANNELS 3 Xrotation Yrotation Zrotation
				JOINT Neck
				{
					OFFSET -0.092200 14.121796 -5.138800
					CHANNELS 3 Xrotation Yrotation Zrotation
					JOINT Head
					{
						OFFSET 0.000200 10.447403 -0.842000
						CHANNELS 3 Xrotation Yrotation Zrotation
						JOINT Visor
						{
							OFFSET 0.457100 25.671204 16.550400
							CHANNELS 3 Xrotation Yrotation Zrotation
							End Site
							{
								OFFSET 0.000000 26.061493 0.000000
							}
						}
						JOINT HairMidA
						{
							OFFSET 0.459400 31.585403 8.437400
							CHANNELS 3 Xrotation Yrotation Zrotation
							End Site
							{
								OFFSET 0.000000 26.061493 0.000000
							}
						}
						JOINT HairMidB
						{
							OFFSET 0.464000 33.309204 -8.389700
							CHANNELS 3 Xrotation Yrotation Zrotation
							End Site
							{
								OFFSET 0.000000 26.061493 0.000000
							}
						}
						JOINT HairMidC
						{
							OFFSET 0.466600 27.991196 -17.375099
							CHANNELS 3 Xrotation Yrotation Zrotation
							End Site
							{
								OFFSET 0.000000 26.061493 0.000000
							}
						}
						JOINT HairMidD
						{
							OFFSET 0.467700 17.888092 -21.169500
							CHANNELS 3 Xrotation Yrotation Zrotation
							End Site
							{
								OFFSET 0.000000 26.061493 0.000000
							}
						}
						JOINT HairMidE
						{
							OFFSET 5.325700 3.514603 -14.369699
							CHANNELS 3 Xrotation Yrotation Zrotation
							End Site
							{
								OFFSET 0.000000 26.061493 0.000000
							}
						}
						JOINT HairMidF
						{
							OFFSET -4.394100 3.514603 -14.372400
							CHANNELS 3 Xrotation Yrotation Zrotation
							End Site
							{
								OFFSET 0.000000 26.061493 0.000000
							}
						}
						JOINT HairLeftA
						{
							OFFSET 15.319900 25.746506 2.623300
							CHANNELS 3 Xrotation Yrotation Zrotation
							End Site
							{
								OFFSET 0.000000 26.061493 0.000000
							}
						}
						JOINT HairLeftB
						{
							OFFSET 12.619500 29.289398 -8.731499
							CHANNELS 3 Xrotation Yrotation Zrotation
							End Site
							{
								OFFSET 0.000000 26.061493 0.000000
							}
						}
						JOINT HairLeftC
						{
							OFFSET 15.714800 15.959900 2.909800
							CHANNELS 3 Xrotation Yrotation Zrotation
							End Site
							{
								OFFSET 0.000000 26.061493 0.000000
							}
						}
						JOINT HairLeftD
						{
							OFFSET 16.101700 18.437408 -7.553200
							CHANNELS 3 Xrotation Yrotation Zrotation
							End Site
							{
								OFFSET 0.000000 26.061493 0.000000
							}
						}
						JOINT HairLeftE
						{
							OFFSET 9.731900 17.915009 -18.316799
							CHANNELS 3 Xrotation Yrotation Zrotation
							End Site
							{
								OFFSET 0.000000 26.061493 0.000000
							}
						}
						JOINT HairLeftF
						{
							OFFSET 11.204300 4.953598 -9.668100
							CHANNELS 3 Xrotation Yrotation Zrotation
							End Site
							{
								OFFSET 0.000000 26.061493 0.000000
							}
						}
						JOINT HairRightA
						{
							OFFSET -14.397900 25.746307 2.615100
							CHANNELS 3 Xrotation Yrotation Zrotation
							End Site
							{
								OFFSET 0.000000 26.061493 0.000000
							}
						}
						JOINT HairRightB
						{
							OFFSET -11.691200 29.289200 -8.738199
							CHANNELS 3 Xrotation Yrotation Zrotation
							End Site
							{
								OFFSET 0.000000 26.061493 0.000000
							}
						}
						JOINT HairRightC
						{
							OFFSET -14.792900 15.959702 2.901400
							CHANNELS 3 Xrotation Yrotation Zrotation
							End Site
							{
								OFFSET 0.000000 26.061493 0.000000
							}
						}
						JOINT HairRightD
						{
							OFFSET -15.174000 18.437195 -7.561900
							CHANNELS 3 Xrotation Yrotation Zrotation
							End Site
							{
								OFFSET 0.000000 26.061493 0.000000
							}
						}
						JOINT HairRightE
						{
							OFFSET -8.798200 17.914902 -18.322001
							CHANNELS 3 Xrotation Yrotation Zrotation
							End Site
							{
								OFFSET 0.000000 26.061493 0.000000
							}
						}
						JOINT HairRightF
						{
							OFFSET -10.275200 4.953506 -9.674099
							CHANNELS 3 Xrotation Yrotation Zrotation
							End Site
							{
								OFFSET 0.000000 26.061493 0.000000
							}
						}
					}
				}
				JOINT LeftShoulder
				{
					OFFSET 5.133500 7.341202 -1.867600
					CHANNELS 3 Xrotation Yrotation Zrotation
					JOINT LeftArm
					{
						OFFSET 8.072663 0.936867 -2.176600
						CHANNELS 3 Xrotation Yrotation Zrotation
						JOINT LeftForeArm
						{
							OFFSET 31.271999 0.000000 0.000000
							CHANNELS 3 Xrotation Yrotation Zrotation
							JOINT LeftHand
							{
								OFFSET 31.771030 0.000000 0.000000
								CHANNELS 3 Xrotation Yrotation Zrotation
								JOINT LeftHandThumb1
								{
									OFFSET 2.886520 -2.557846 4.416640
									CHANNELS 3 Xrotation Yrotation Zrotation
									JOINT LeftHandThumb2
									{
										OFFSET 2.371025 -1.368912 1.368911
										CHANNELS 3 Xrotation Yrotation Zrotation
										JOINT LeftHandThumb3
										{
											OFFSET 2.243378 -1.295212 1.295213
											CHANNELS 3 Xrotation Yrotation Zrotation
											End Site
											{
												OFFSET -0.332611 2.876945 0.020015
											}
										}
									}
								}
								JOINT LeftHandIndex1
								{
									OFFSET 8.568985 -0.641945 3.119977
									CHANNELS 3 Xrotation Yrotation Zrotation
									JOINT LeftHandIndex2
									{
										OFFSET 3.348503 0.000000 0.000000
										CHANNELS 3 Xrotation Yrotation Zrotation
										JOINT LeftHandIndex3
										{
											OFFSET 3.314552 0.000000 0.000000
											CHANNELS 3 Xrotation Yrotation Zrotation
											End Site
											{
												OFFSET -1.032898 3.075485 0.678796
											}
										}
									}
								}
								JOINT LeftHandMiddle1
								{
									OFFSET 8.124603 0.000000 0.000000
									CHANNELS 3 Xrotation Yrotation Zrotation
									JOINT LeftHandMiddle2
									{
										OFFSET 4.166275 0.000000 0.000000
										CHANNELS 3 Xrotation Yrotation Zrotation
										JOINT LeftHandMiddle3
										{
											OFFSET 3.018135 0.000000 0.000000
											CHANNELS 3 Xrotation Yrotation Zrotation
											End Site
											{
												OFFSET -1.032700 2.767982 0.617226
											}
										}
									}
								}
								JOINT LeftHandRing1
								{
									OFFSET 8.571686 -0.031357 -2.884048
									CHANNELS 3 Xrotation Yrotation Zrotation
									JOINT LeftHandRing2
									{
										OFFSET 3.671181 0.000000 0.000000
										CHANNELS 3 Xrotation Yrotation Zrotation
										JOINT LeftHandRing3
										{
											OFFSET 2.728851 0.000000 0.000000
											CHANNELS 3 Xrotation Yrotation Zrotation
											End Site
											{
												OFFSET -0.815796 2.539223 0.577389
											}
										}
									}
								}
								JOINT LeftHandPinky1
								{
									OFFSET 7.854515 -0.675232 -5.213020
									CHANNELS 3 Xrotation Yrotation Zrotation
									JOINT LeftHandPinky2
									{
										OFFSET 3.068596 0.000000 0.000000
										CHANNELS 3 Xrotation Yrotation Zrotation
										JOINT LeftHandPinky3
										{
											OFFSET 2.396042 0.000000 0.000000
											CHANNELS 3 Xrotation Yrotation Zrotation
											End Site
											{
												OFFSET -0.524597 2.267998 0.567429
											}
										}
									}
								}
							}
							JOINT LeftSleeve
							{
								OFFSET 19.684509 -0.200119 0.476146
								CHANNELS 3 Xrotation Yrotation Zrotation
								End Site
								{
									OFFSET -0.031017 25.731133 -0.002868
								}
							}
						}
					}
				}
				JOINT RightShoulder
				{
					OFFSET -4.395900 7.341202 -1.870200
					CHANNELS 3 Xrotation Yrotation Zrotation
					JOINT RightArm
					{
						OFFSET -8.071453 0.936867 -2.181100
						CHANNELS 3 Xrotation Yrotation Zrotation
						JOINT RightForeArm
						{
							OFFSET -31.272011 0.000000 0.000000
							CHANNELS 3 Xrotation Yrotation Zrotation
							JOINT RightHand
							{
								OFFSET -31.771019 0.000000 0.000000
								CHANNELS 3 Xrotation Yrotation Zrotation
								JOINT RightHandThumb1
								{
									OFFSET -2.886520 -2.557808 4.416626
									CHANNELS 3 Xrotation Yrotation Zrotation
									JOINT RightHandThumb2
									{
										OFFSET -2.371056 -1.368927 1.368928
										CHANNELS 3 Xrotation Yrotation Zrotation
										JOINT RightHandThumb3
										{
											OFFSET -2.243362 -1.295204 1.295206
											CHANNELS 3 Xrotation Yrotation Zrotation
											End Site
											{
												OFFSET 0.332642 2.876938 0.020047
											}
										}
									}
								}
								JOINT RightHandIndex1
								{
									OFFSET -8.568993 -0.641953 3.120017
									CHANNELS 3 Xrotation Yrotation Zrotation
									JOINT RightHandIndex2
									{
										OFFSET -3.348518 0.000000 0.000000
										CHANNELS 3 Xrotation Yrotation Zrotation
										JOINT RightHandIndex3
										{
											OFFSET -3.314552 0.000000 0.000000
											CHANNELS 3 Xrotation Yrotation Zrotation
											End Site
											{
												OFFSET 1.032898 3.075478 0.678804
											}
										}
									}
								}
								JOINT RightHandMiddle1
								{
									OFFSET -8.124588 0.000000 0.000000
									CHANNELS 3 Xrotation Yrotation Zrotation
									JOINT RightHandMiddle2
									{
										OFFSET -4.166275 0.000000 0.000000
										CHANNELS 3 Xrotation Yrotation Zrotation
										JOINT RightHandMiddle3
										{
											OFFSET -3.018097 0.000000 0.000000
											CHANNELS 3 Xrotation Yrotation Zrotation
											End Site
											{
												OFFSET 1.032700 2.767937 0.617197
											}
										}
									}
								}
								JOINT RightHandRing1
								{
									OFFSET -8.571747 -0.031349 -2.884061
									CHANNELS 3 Xrotation Yrotation Zrotation
									JOINT RightHandRing2
									{
										OFFSET -3.671204 0.000000 0.000000
										CHANNELS 3 Xrotation Yrotation Zrotation
										JOINT RightHandRing3
										{
											OFFSET -2.728874 0.000000 0.000000
											CHANNELS 3 Xrotation Yrotation Zrotation
											End Site
											{
												OFFSET 0.815804 2.539261 0.577413
											}
										}
									}
								}
								JOINT RightHandPinky1
								{
									OFFSET -7.854561 -0.675247 -5.212970
									CHANNELS 3 Xrotation Yrotation Zrotation
									JOINT RightHandPinky2
									{
										OFFSET -3.068550 0.000000 0.000000
										CHANNELS 3 Xrotation Yrotation Zrotation
										JOINT RightHandPinky3
										{
											OFFSET -2.395981 0.000000 0.000000
											CHANNELS 3 Xrotation Yrotation Zrotation
											End Site
											{
												OFFSET 0.524605 2.267952 0.567413
											}
										}
									}
								}
							}
							JOINT RightSleeve
							{
								OFFSET -19.684753 -0.200165 0.476065
								CHANNELS 3 Xrotation Yrotation Zrotation
								End Site
								{
									OFFSET 0.031342 25.731255 -0.002917
								}
							}
						}
					}
				}
				JOINT Hood
				{
					OFFSET 0.369700 14.447800 -5.317800
					CHANNELS 3 Xrotation Yrotation Zrotation
					JOINT Hood1
					{
						OFFSET 0.001700 -5.553802 -5.895100
						CHANNELS 3 Xrotation Yrotation Zrotation
						JOINT Hood2
						{
							OFFSET -0.000200 -8.380501 0.763600
							CHANNELS 3 Xrotation Yrotation Zrotation
							End Site
							{
								OFFSET 0.000000 8.415215 0.000000
							}
						}
					}
				}
				JOINT Left_Breast
				{
					OFFSET 5.682500 3.120102 3.188800
					CHANNELS 3 Xrotation Yrotation Zrotation
					End Site
					{
						OFFSET 0.000000 10.528564 0.000000
					}
				}
				JOINT Right_Breast
				{
					OFFSET -4.947600 3.120102 3.185900
					CHANNELS 3 Xrotation Yrotation Zrotation
					End Site
					{
						OFFSET 0.000000 10.528564 0.000000
					}
				}
				JOINT Whistle
				{
					OFFSET 0.368200 11.471298 0.095400
					CHANNELS 3 Xrotation Yrotation Zrotation
					JOINT Whistle1
					{
						OFFSET -0.002000 -6.349899 7.479800
						CHANNELS 3 Xrotation Yrotation Zrotation
						JOINT Whistle2
						{
							OFFSET -0.001300 -8.217598 4.717600
							CHANNELS 3 Xrotation Yrotation Zrotation
							End Site
							{
								OFFSET 0.000000 9.475479 0.000000
							}
						}
					}
				}
			}
		}
		JOINT Belly
		{
			OFFSET 0.212400 1.593002 3.163700
			CHANNELS 3 Xrotation Yrotation Zrotation
			End Site
			{
				OFFSET 0.000000 7.496635 0.000000
			}
		}
	}
	JOINT FitGrandmaFacialAnim_Joint
	{
		OFFSET 1.150000 -86.211197 -1.220100
		CHANNELS 3 Xrotation Yrotation Zrotation
		End Site
		{
			OFFSET 0.000000 31.666618 0.000000
		}
	}
}
MOTION
Frames: 4
Frame Time: 0.016667
-3.894985 84.743996 -5.230544 -9.385673 -0.905288 3.243038 -0.000001 -0.000000 0.000000 -2.809711 8.304206 -4.326577 24.545979 -0.237221 -0.253062 -13.012171 3.720658 3.018347 -0.000000 -0.000000 -0.000000 0.000001 -0.000000 0.000000 0.000001 -0.000000 -0.000000 -8.398296 -14.832377 -15.232871 31.746972 0.797342 0.326121 -13.772952 -14.659148 4.555343 0.000000 -0.000002 -0.000000 0.000000 -0.000000 0.000000 -0.000001 -0.000001 -0.000001 7.157977 1.534707 -4.227505 14.244013 3.269502 -3.077382 14.269170 3.169305 -3.056461 34.427063 0.786428 -4.647339 -1.158463 2.164344 -5.573714 -0.000000 -0.000001 0.000002 -0.000000 -0.000001 0.000002 -0.000000 -0.000001 0.000002 -0.000000 -0.000001 0.000002 -0.000000 -0.000001 0.000002 -0.000000 -0.000001 0.000002 -0.000000 -0.000001 0.000002 -0.000000 -0.000001 0.000002 -0.000000 -0.000001 0.000002 -0.000000 -0.000001 0.000002 -0.000000 -0.000001 0.000002 -0.000000 -0.000001 0.000002 -0.000000 -0.000001 0.000002 -0.000000 -0.000001 0.000002 -0.000000 -0.000001 0.000002 -0.000000 -0.000001 0.000002 -0.000000 -0.000001 0.000002 -0.000000 -0.000001 0.000002 -0.000000 -0.000001 0.000002 -1.697386 -21.196985 -25.775455 -1.040194 -44.501777 -31.977890 4.422140 -24.531574 1.305867 -9.189764 -9.383445 -4.673677 -20.843970 2.778282 -4.205203 -15.861892 33.847825 10.250611 0.000000 -0.000000 -0.000000 -3.032249 19.342216 -21.628904 6.299668 9.746900 -60.829023 0.000002 -0.000005 0.000001 -13.487455 18.094996 -22.029653 6.757699 12.670204 -69.483692 0.000000 0.000000 -0.000003 -15.276650 16.701599 -37.493360 3.110998 12.310376 -81.609525 -0.000000 -0.000001 -0.000000 -30.922684 24.752715 -41.175017 6.897606 7.241746 -89.331388 -0.000002 -0.000001 0.000001 -0.000002 -0.000002 0.000002 -1.956290 23.252495 25.557181 -0.642666 20.673874 37.850128 388.848052 40.014397 -373.261150 -9.479960 7.418356 17.742881 -21.511954 -2.863841 5.102375 -16.456439 -31.619568 -10.828987 -0.000002 0.000001 0.000000 -1.117328 -20.400103 22.512879 6.671893 -9.934602 63.001016 -0.000001 -0.000001 0.000001 -13.816734 -17.423235 21.320938 6.561192 -12.925908 68.651092 -0.000001 0.000000 -0.000002 -14.137745 -15.831726 36.119191 3.239849 -12.615805 81.908298 -0.000001 -0.000002 -0.000003 -31.246889 -25.471758 41.789717 6.380838 -7.478713 85.668959 -0.000004 -0.000000 -0.000002 0.000001 0.000003 -0.000001 -0.000002 -0.000000 0.000000 -0.000002 -0.000000 0.000000 -0.000002 -0.000000 0.000000 -0.000002 -0.000000 0.000000 -0.000002 -0.000000 0.000000 -0.000002 -0.000000 0.000001 -0.000002 0.000000 0.000000 -0.000002 0.000000 0.000000 -0.000000 0.000000 -0.000000 -0.000001 -0.000000 0.000000 
-3.594740 84.909416 -5.173316 -9.894512 -1.205458 3.432696 -0.000000 -0.000000 -0.000000 -1.236330 8.697958 -4.918639 22.973959 -0.206321 -0.243228 -12.456483 3.549689 3.284237 0.000000 0.000001 -0.000000 0.000001 0.000000 -0.000000 -0.000000 0.000000 -0.000000 -7.542352 -14.824453 -15.676331 30.863118 0.800694 0.323072 -13.233938 -14.384317 4.879773 0.000000 -0.000001 -0.000000 -0.000000 0.000000 -0.000000 -0.000001 0.000001 0.000001 6.790435 1.592477 -4.353786 13.499550 3.300433 -3.157294 13.525421 3.199131 -3.135813 33.353422 1.110182 -4.334508 -1.596119 2.537175 -5.856432 0.000001 -0.000000 -0.000001 0.000001 -0.000000 -0.000001 0.000001 -0.000000 -0.000001 0.000001 -0.000000 -0.000001 0.000001 -0.000000 -0.000001 0.000001 -0.000000 -0.000001 0.000001 -0.000000 -0.000001 0.000001 -0.000000 -0.000001 0.000001 -0.000000 -0.000001 0.000001 -0.000000 -0.000001 0.000001 -0.000000 -0.000001 0.000001 -0.000000 -0.000001 0.000001 -0.000000 -0.000001 0.000001 -0.000000 -0.000001 0.000001 -0.000000 -0.000001 0.000001 -0.000000 -0.000001 0.000001 -0.000000 -0.000001 0.000001 -0.000000 -0.000001 0.000001 -0.000000 -0.000001 -1.205553 -20.666496 -24.364060 1.602667 -41.933598 -31.598238 4.490913 -26.563552 0.875682 -9.122658 -9.161234 -3.757669 -20.813318 1.465119 -4.329348 -17.962347 34.591442 10.894305 0.000000 0.000001 -0.000001 -2.865796 20.397629 -21.773253 6.720241 9.983937 -64.054887 -0.000001 -0.000003 0.000004 -14.124304 18.570898 -22.021445 7.166294 13.162433 -72.156079 -0.000001 0.000002 -0.000001 -15.699029 16.729317 -37.472187 3.380904 13.021872 -85.361225 0.000003 -0.000003 0.000003 -32.765001 25.881096 -41.122414 7.141874 7.587532 -92.296865 -0.000000 0.000001 0.000000 -0.000001 -0.000002 -0.000002 -1.348469 22.309544 23.910462 2.405183 20.579674 39.044811 390.735014 42.386088 -375.654476 -9.510647 7.694591 16.288761 -21.155650 -1.499638 4.801397 -18.479145 -32.518531 -11.171447 0.000001 0.000002 -0.000000 -1.414028 -21.180217 23.136509 7.201692 -10.089896 66.392219 0.000000 -0.000000 0.000001 -13.696617 -18.828231 22.659702 7.302374 -13.300205 72.456108 -0.000001 0.000004 -0.000001 -14.448097 -16.935558 37.866005 3.852943 -13.239556 86.752138 -0.000001 -0.000002 -0.000005 -32.393525 -27.169751 42.613687 7.302984 -7.722388 91.940473 -0.000003 0.000001 0.000001 0.000001 -0.000000 -0.000001 -0.000000 0.000001 -0.000000 -0.000000 0.000001 -0.000000 -0.000000 0.000001 -0.000000 -0.000000 0.000001 -0.000000 -0.000000 0.000001 -0.000000 -0.000000 0.000001 0.000000 -0.000000 -0.000001 -0.000000 -0.000000 -0.000001 -0.000000 0.000000 -0.000000 0.000000 -0.000000 -0.000000 -0.000000 
-3.296705 84.989655 -5.136206 -10.188605 -1.411717 3.607002 -0.000001 0.000000 -0.000000 -0.225701 9.041539 -5.453125 21.957180 -0.184077 -0.236470 -12.109983 3.363119 3.555831 -0.000000 0.000000 0.000000 -0.000001 0.000000 -0.000000 -0.000000 0.000000 -0.000000 -7.124096 -14.784604 -16.142754 30.375562 0.815836 0.321681 -12.861519 -14.188833 5.220587 0.000000 -0.000000 -0.000000 -0.000002 -0.000001 0.000001 0.000002 0.000001 -0.000000 6.436201 1.604003 -4.470655 12.785433 3.259335 -3.237265 12.811439 3.157067 -3.215350 32.190989 1.385667 -4.182465 -2.117614 2.779012 -5.803764 -0.000000 0.000000 0.000000 -0.000000 0.000000 0.000000 -0.000000 0.000000 0.000000 -0.000000 0.000000 0.000000 -0.000000 0.000000 0.000000 -0.000000 0.000000 0.000000 -0.000000 0.000000 0.000000 -0.000000 0.000000 0.000000 -0.000000 0.000000 0.000000 -0.000000 0.000000 0.000000 -0.000000 0.000000 0.000000 -0.000000 0.000000 0.000000 -0.000000 0.000000 0.000000 -0.000000 0.000000 0.000000 -0.000000 0.000000 0.000000 -0.000000 0.000000 0.000000 -0.000000 0.000000 0.000000 -0.000000 0.000000 0.000000 -0.000000 0.000000 0.000000 -0.606951 -19.983607 -22.751683 3.591667 -39.451125 -31.646937 5.236549 -28.036364 0.947487 -9.048448 -8.981114 -2.662385 -20.797713 0.593387 -4.405177 -19.377564 35.076792 11.340705 0.000002 -0.000001 0.000000 -2.843860 21.049267 -21.555237 6.983292 10.133548 -66.089962 0.000001 0.000001 -0.000001 -14.712815 18.654510 -21.681860 7.427303 13.475962 -73.762204 0.000003 0.000000 0.000001 -16.114197 16.583351 -37.151393 3.571212 13.484286 -87.649495 0.000000 0.000003 0.000001 -34.046833 26.463715 -40.933703 7.318309 7.814272 -94.101333 -0.000002 -0.000001 -0.000002 0.000001 -0.000001 0.000002 -0.713642 21.402181 22.136609 4.746091 20.510853 40.324867 391.595645 44.303657 -377.134769 -9.517317 8.185765 14.466665 -20.919479 -0.599296 4.588750 -19.743242 -33.270562 -11.347301 0.000001 -0.000000 0.000001 -1.732047 -21.630724 23.353240 7.525105 -10.184773 68.548516 -0.000001 -0.000000 0.000001 -13.647356 -19.748117 23.428133 7.815855 -13.530614 74.982138 -0.000002 -0.000000 0.000002 -14.832516 -17.503024 38.828048 4.283386 -13.641173 89.897891 0.000000 -0.000005 -0.000005 -33.250577 -28.094772 42.857890 7.902198 -7.871587 96.036988 -0.000004 0.000001 -0.000005 -0.000000 -0.000001 0.000001 0.000003 -0.000001 0.000000 0.000003 -0.000001 0.000000 0.000003 -0.000001 0.000000 0.000003 -0.000001 0.000000 0.000003 -0.000001 0.000000 0.000002 -0.000001 0.000001 0.000002 -0.000000 0.000000 0.000002 -0.000000 0.000000 -0.000000 0.000000 -0.000000 -0.000001 0.000000 -0.000000 
-3.015734 85.008133 -5.091787 -10.281097 -1.570540 3.766907 0.000000 -0.000000 0.000000 0.323312 9.368451 -5.921164 21.391633 -0.165713 -0.232472 -11.956621 3.176533 3.817250 -0.000000 0.000001 0.000000 -0.000001 -0.000001 0.000001 -0.000001 0.000001 -0.000000 -7.077943 -14.684832 -16.610539 30.245744 0.826957 0.321632 -12.667670 -14.027191 5.481100 0.000000 -0.000001 -0.000000 -0.000001 0.000001 0.000001 -0.000001 -0.000004 -0.000002 6.089695 1.606631 -4.585773 12.086296 3.177757 -3.317954 12.112674 3.083689 -3.298396 30.904830 1.645485 -3.990193 -2.591296 2.961593 -5.738692 0.000000 0.000002 -0.000000 0.000000 0.000002 -0.000000 0.000000 0.000002 -0.000000 0.000000 0.000002 -0.000000 0.000000 0.000002 -0.000000 0.000000 0.000002 -0.000000 0.000000 0.000002 -0.000000 0.000000 0.000002 -0.000000 0.000000 0.000002 -0.000000 0.000000 0.000002 -0.000000 0.000000 0.000002 -0.000000 0.000000 0.000002 -0.000000 0.000000 0.000002 -0.000000 0.000000 0.000002 -0.000000 0.000000 0.000002 -0.000000 0.000000 0.000002 -0.000000 0.000000 0.000002 -0.000000 0.000000 0.000002 -0.000000 0.000000 0.000002 -0.000000 0.051153 -19.230217 -20.982126 4.852669 -36.960500 -32.152344 6.739155 -28.723855 1.369254 -8.972973 -8.751128 -1.470436 -20.780036 0.131093 -4.433505 -20.134389 35.301682 11.597063 -0.000001 -0.000000 -0.000000 -2.943808 21.290190 -21.292070 7.059015 10.202919 -66.897496 0.000000 -0.000008 -0.000001 -15.195142 18.667293 -21.192989 7.557111 13.632462 -74.479354 -0.000001 -0.000001 0.000002 -16.474346 16.391660 -36.743754 3.655791 13.711850 -88.528001 0.000001 0.000000 0.000004 -34.882623 26.667324 -40.681628 7.415436 7.943043 -95.048598 0.000000 -0.000000 0.000001 0.000001 -0.000001 -0.000001 -0.076870 20.530174 20.303506 6.411390 20.396588 41.725178 391.669330 45.382403 -377.619794 -9.496821 8.760657 12.468600 -20.787032 -0.131129 4.453330 -20.394081 -33.885463 -11.409670 -0.000005 0.000001 0.000000 -1.978502 -21.846032 23.322103 7.606891 -10.233860 69.363488 -0.000001 -0.000000 0.000003 -13.665494 -20.156385 23.639264 8.028572 -13.635631 76.097952 -0.000000 0.000000 -0.000001 -15.196122 -17.695967 39.083790 4.414978 -13.872906 91.092498 -0.000002 0.000000 -0.000004 -33.824326 -28.399966 42.754399 8.070461 -7.958726 97.642677 -0.000003 -0.000000 0.000002 0.000000 0.000000 0.000002 -0.000000 0.000000 -0.000000 -0.000000 0.000000 -0.000000 -0.000000 0.000000 -0.000000 -0.000000 0.000000 -0.000000 -0.000000 0.000000 -0.000000 -0.000000 -0.000000 0.000000 -0.000002 -0.000000 0.000000 -0.000002 -0.000000 0.000000 0.000000 0.000000 -0.000000 0.000000 -0.000000 0.000000 
